<?xml version="1.0" standalone="no"?>
<!DOCTYPE svg PUBLIC "-//W3C//DTD SVG 20010904//EN"
 "http://www.w3.org/TR/2001/REC-SVG-20010904/DTD/svg10.dtd">
<svg version="1.0" xmlns="http://www.w3.org/2000/svg"
 width="353.000000pt" height="353.000000pt" viewBox="0 0 353.000000 353.000000"
 preserveAspectRatio="xMidYMid meet">
<metadata>
Created by potrace 1.11, written by Peter Selinger 2001-2013
</metadata>
<g transform="translate(0.000000,353.000000) scale(0.100000,-0.100000)"
fill="#000000" stroke="none">
<path d="M1575 2351 c-158 -82 -471 -244 -502 -259 -10 -5 -29 -15 -43 -22
-107 -57 -130 -68 -131 -62 -1 4 -2 81 -3 172 l-1 165 -191 3 -190 2 1 -249 1
-249 -141 -73 c-77 -40 -190 -98 -252 -128 l-112 -56 0 -247 c-1 -192 2 -248
12 -248 139 -6 1401 0 1406 6 5 5 17 41 29 79 11 39 41 136 66 216 25 81 46
152 46 158 0 6 -14 25 -31 42 -46 45 -62 93 -61 179 0 85 12 115 69 173 43 45
70 60 134 75 210 52 388 -164 300 -363 -11 -25 -32 -57 -47 -72 l-27 -27 27
-75 c15 -42 31 -89 36 -106 7 -27 39 -115 86 -239 l19 -48 665 0 c366 1 693 1
726 1 l61 1 0 246 -1 245 -95 45 c-113 54 -222 105 -346 163 -49 23 -117 55
-150 71 -33 15 -116 54 -185 86 -69 32 -134 63 -146 71 -11 7 -23 11 -26 8 -3
-3 -11 1 -18 10 -7 8 -18 15 -25 15 -7 0 -52 20 -102 44 -49 24 -114 54 -144
67 -30 12 -61 28 -69 34 -8 7 -33 19 -55 28 -51 20 -265 120 -285 132 -18 12
-119 55 -140 60 -8 3 -82 -31 -165 -74z"/>
</g>
</svg>
